<svg version="1.2" xmlns="http://www.w3.org/2000/svg" viewBox="0 0 400 400" width="200" height="200">
	<title>index-logo</title>
	<style>
		.s0 { fill: #808080 } 
		.s1 { fill: #fffbfe } 
	</style>
	<path id="INDE   ." class="s0" aria-label="INDE   ."  d="m85.1 219.6q-4.6 0-4.6-4.7v-42q0-4.7 4.6-4.7 4.6 0 4.6 4.7v42q0 4.7-4.6 4.7zm19.8 0q-4.3 0-4.3-4.4v-42.4q0-2.3 1.1-3.4 1.2-1.2 2.9-1.2 1.7 0 2.5 0.6 0.8 0.6 2 2l25.4 33v-31.3q0-4.3 4.3-4.3 4.2 0 4.2 4.3v42.8q0 2-1 3.1-1 1.2-2.7 1.2-1.7 0-2.7-0.7-0.9-0.6-2-2l-25.5-33.1v31.4q0 4.4-4.2 4.4zm67.7-0.6h-13.8q-4.9 0-4.9-4.8v-40.6q0-4.8 4.9-4.8h13.8q12.6 0 19.5 6.4 6.9 6.5 6.9 18.6 0 12.1-6.9 18.6-6.9 6.6-19.5 6.6zm-9.5-42.7v35.1h8.9q17.4 0 17.4-17.6 0-17.5-17.4-17.5zm75.5 42.7h-25.4q-4.9 0-4.9-4.8v-40.6q0-4.8 4.9-4.8h25.4q3.7 0 3.7 3.5 0 3.7-3.7 3.7h-21.5v13.9h19.9q3.8 0 3.8 3.6 0 3.6-3.8 3.6h-19.9v14.6h21.5q3.7 0 3.7 3.7 0 3.6-3.7 3.6zm72.1 0.4q-2.4 0-3.9-1.5-1.4-1.5-1.4-3.9 0-2.3 1.4-3.7 1.5-1.5 3.9-1.5 2.5 0 3.9 1.5 1.4 1.4 1.4 3.7 0 2.4-1.4 3.9-1.4 1.5-3.9 1.5z"/>
	<path id="X" class="s1" aria-label="X"  d="m251.3 219.8q-2.5 0-4.1-1.3-1.6-1.4-1.9-3.3-0.2-2.1 1.4-4.2l20.6-27.3-19.5-26q-1.6-2.2-1.4-4.1 0.2-2.1 1.8-3.4 1.6-1.4 3.9-1.4 3.7 0 6.7 4.1l15.7 21.6 15.8-21.6q3-4.1 6.7-4.1 2.5 0 4.1 1.3 1.6 1.3 1.8 3.4 0.2 1.9-1.5 4.2l-19.5 26 20.5 27.3q1.6 2.1 1.4 4.2-0.2 1.9-1.8 3.3-1.6 1.3-4.2 1.3-3.5 0-6.6-4.1l-16.7-22.7-16.5 22.7q-3.1 4.1-6.7 4.1z"/>
</svg>