<svg version="1.2" xmlns="http://www.w3.org/2000/svg" viewBox="0 0 50 50" width="50" height="50">
	<title>Novo Projeto</title>
	<style>
		.s0 { fill: #808080 } 
	</style>
	<path id="IX." class="s0" aria-label="IX."  d="m7.4 39.2q-1.7 0-1.7-1.7v-19.6q0-1.7 1.7-1.7 1.6 0 1.6 1.7v19.6q0 1.7-1.6 1.7zm7.8 0.1q-1.2 0-1.7-0.9-0.6-0.9 0.2-2l8.8-11.8-8.3-11.2q-0.8-1-0.3-2 0.5-0.9 1.7-0.9 1.2 0 2.2 1.3l7.1 9.8 7-9.8q1-1.3 2.2-1.3 1.2 0 1.8 0.9 0.5 0.9-0.4 2l-8.3 11.2 8.8 11.8q0.8 1.1 0.3 2-0.5 0.9-1.8 0.9-1.2 0-2.2-1.3l-7.4-10.3-7.5 10.3q-1 1.3-2.2 1.3zm28.1-0.1q-1.2 0-2-0.8-0.6-0.7-0.6-1.8 0-1.1 0.6-1.8 0.8-0.7 2-0.7 1.1 0 1.8 0.7 0.7 0.7 0.7 1.8 0 1.1-0.7 1.8-0.7 0.8-1.8 0.8z"/>
</svg>